<?xml version="1.0" standalone="no"?><!DOCTYPE svg PUBLIC "-//W3C//DTD SVG 1.1//EN" "http://www.w3.org/Graphics/SVG/1.1/DTD/svg11.dtd"><svg t="1498638204371" class="icon" style="" viewBox="0 0 1024 1024" version="1.1" xmlns="http://www.w3.org/2000/svg" p-id="1007" xmlns:xlink="http://www.w3.org/1999/xlink" width="200" height="200"><defs><style type="text/css"></style></defs><path d="M511.7 512.2c0-0.1-0.1-0.3-0.1-0.4 0 0.1 0.1 0.2 0.1 0.4z" p-id="1008" fill="#2c3e50"></path><path d="M511.7 512.2c0-0.1-0.1-0.3-0.1-0.4 0 0.2 0.1 0.3 0.1 0.4zM356.6 818.6c-40.6 0-72.9-9.1-96-27-15.2-11.8-26.4-27.5-33.2-46.6l-0.1-0.1c-7.3-18.8-37.1-72.5-63.7-87.3-15.4-8.3-26.5-20.1-25.4-24.3 0.1-0.2 1.5-5.1 22.2-5.4h1.4c45.7 0 77.4 44.9 86.1 58.8 26.4 44.3 64.8 67.7 110.9 67.7 25.3 0 48-7 62.5-12.8L418 813c-22 3.6-42.7 5.6-61.4 5.6z" p-id="1009" fill="#2c3e50"></path><path d="M842.3 214.3L831.1 202l6.2-15.4c5.4-13.4 20.2-59.8-0.4-123.5-18.7 1.3-61 10.6-130.7 58L696 128l-11.9-3.3c-45.3-12.7-93.3-19.2-142.6-19.2s-97.3 6.5-142.6 19.2l-11.8 3.3-10.2-6.8C307.4 74.4 265.1 64.8 246 63.3c-20.6 63.7-5.8 109.9-0.4 123.4l6.2 15.5-11.2 12.3c-36.1 39.5-54.4 87.7-54.4 143.2 0 96.3 25.1 164.3 76.9 207.9 39.3 33.2 94 52.7 172.2 61.4l60.3 6.7-45.9 39.7c-8.7 7.5-24.2 25.8-29.3 63.6l-2 14.5-13.3 6.1c-3.7 1.7-7.8 3.4-12.2 5.1l-1.3 27.6 25.9-4.8v31.8c0 32.7 0.3 64.7 0.5 85.8 0.1 11.5 0.2 20.6 0.2 25.7 0 6.4-1 12.7-3.1 18.8 40.8 9.1 82.6 13.6 124.9 13.6 42.8 0 85.1-4.7 126.4-14-2-6-3-12.3-3-18.6 0-6.8 0.1-18.3 0.2-34.2 0.2-30.8 0.5-77.3 0.5-130.5 0-57.5-21.8-82.6-31.2-90.8L587 633.4l60.3-6.7c78.2-8.7 132.9-28.1 172.2-61.1 51.9-43.5 77.1-111.6 77.1-208.1 0.1-55.1-18.2-103.3-54.3-143.2zM605.7 708.2l1.9 2.7c3.6 5.2 12.1 20.7 12.1 53 0 40.2-0.2 76.2-0.4 105 0 6.8-0.1 13.2-0.1 19l-0.1 23.7-23.6 2.5c-18.3 1.9-36.9 2.9-55.3 2.9-17.3 0-35.4-0.9-53.7-2.7l-23.7-2.3-0.2-23.8c-0.2-17.4-0.4-43.7-0.4-71v-57l2.4-17.6c2.2-16.3 6.9-26 10.4-31.3l2-3 64.2-55.8 64.5 55.7zM791 531.6c-32.5 27.2-79.8 43.4-148.8 51.1l-101.1 11.4-101-11.4c-69.1-7.7-116.3-24.1-148.5-51.4-15.2-12.8-61.1-51.6-61.1-174 0-44.5 14-81.5 42.9-113.2l29.9-32.9L259 100.3l67.9 41.4c6.7 4.1 15.6 9.6 25.3 16l27.2 18.3 31.6-8.9c41.7-11.6 85.6-17.5 130.5-17.5s88.8 5.9 130.5 17.5l31.8 8.9 27.3-18.5c8.1-5.5 16.4-10.8 25.1-16.2l68-41.5-44.5 111.3 29.9 32.8c28.9 31.7 42.9 68.7 42.9 113.3-0.1 123.3-46.2 161.8-61.5 174.4z" p-id="1010" fill="#2c3e50"></path></svg>